<svg id="Layer_1" data-name="Layer 1" xmlns="http://www.w3.org/2000/svg" viewBox="0 0 1000 1000"><defs><style>.cls-1{fill:#010101;}</style></defs><path class="cls-1" d="M140.96964,789.20743H111.42471V705.3002h26.16065c15.37793,0,25.70947,9.24414,25.70947,23.00195a19.90214,19.90214,0,0,1-8.55957,16.79981A23.25366,23.25366,0,0,1,166.90469,765.641C166.90469,779.517,156.24014,789.20743,140.96964,789.20743Zm-20.4292-8.10059h19.52685c10.56006,0,17.3833-6.248,17.3833-15.917,0-8.75195-6.2124-15.35254-14.45019-15.35254h-22.46Zm0-39.14453h24.31982c4.17871-1.11523,8.98047-5.24512,8.98047-13.32129,0-9.68555-6.00733-15.24023-16.481-15.24023H120.54044Z"/><path class="cls-1" d="M215.53555,790.56094c-19.41845,0-31.01123-11.29785-31.01123-30.22168V705.3002h9.22852v54.81348c0,13.56933,8.14306,21.66992,21.78271,21.66992s21.78272-8.10059,21.78272-21.66992V705.3002H246.434v55.03906C246.434,779.26309,234.88321,790.56094,215.53555,790.56094Z"/><path class="cls-1" d="M307.35928,790.56094c-24.81787,0-43.53271-18.61816-43.53271-43.30761,0-24.28418,19.12158-43.30664,43.53271-43.30664a54.12454,54.12454,0,0,1,25.57373,6.36816l.69971.38184v9.418l-1.95166-.99316c-8.46045-4.30469-16.4165-6.39746-24.32178-6.39746-19.49267,0-34.19189,14.84473-34.19189,34.5293,0,20.00781,14.37988,34.53027,34.19189,34.53027a54.6394,54.6394,0,0,0,24.88575-6.28418l1.95166-.99316V783.932l-.71045.3789A56.089,56.089,0,0,1,307.35928,790.56094Z"/><path class="cls-1" d="M416.78165,789.20743H405.78506l-27.53125-42.56836-16.87207,18.83887v23.72949h-9.22851V705.3002h9.22851v47.78516l42.50049-47.78516H415.6254L384.516,739.82657Z"/><path class="cls-1" d="M438.65372,789.20743H429.4252V705.3002h9.22852Z"/><path class="cls-1" d="M528.786,790.56094h-2.08789l-53.08545-64.2666q.00952.53173.00977,1.10547v61.80762H464.394V703.94669h2.08789l.40332.4873,52.78662,63.9043c-.001-.39746-.001-.8086-.001-1.23047V705.41348H528.786Z"/><path class="cls-1" d="M591.8544,790.56094c-24.81836,0-43.5332-18.61816-43.5332-43.30761,0-24.28418,19.17187-43.30664,43.64648-43.30664a54.12571,54.12571,0,0,1,25.57324,6.36816l.7002.38184v9.418l-1.95215-.99316c-8.46094-4.30469-16.417-6.39746-24.32129-6.39746-19.87695,0-34.30469,14.52148-34.30469,34.5293s14.37989,34.53027,34.19141,34.53027a51.88446,51.88446,0,0,0,18.28613-3.3916V751.55118h9.00293V783.8168l-.707.38086A56.72555,56.72555,0,0,1,591.8544,790.56094Z"/><path class="cls-1" d="M699.79971,789.20743H690.6835V750.85294H648.58487v38.35449h-9.22852V705.3002h9.22852v37.33887H690.6835V705.3002h9.11621Z"/><path class="cls-1" d="M790.87393,789.20743h-9.81738l-9.25-21.09473H732.7294l-9.13672,21.09473h-9.93945l37.73926-85.26074h1.97558l.35352.80175Zm-54.60449-29.3086h31.99512C762.38077,746.41055,757.329,734.71329,752.3671,722.85c-4.23829,9.94336-8.4336,19.53027-12.85254,29.62793Z"/><path class="cls-1" d="M878.59854,789.20743h-9.11523V729.65567c0-.43945,0-.88184.001-1.332-.60254.88183-1.23339,1.78711-1.85742,2.68164-.69336.99316-1.3789,1.97656-2.00683,2.90137l-24.01661,33.36328-27.75878-38.90918c.00195.43652.00195.86719.00195,1.29492v59.55176h-9.11524V703.94669h2.14551l34.7334,48.55957L876.454,703.94669h2.14453Z"/><path class="cls-1" d="M336.56387,924.57755h-9.22851V840.67032h23.67871c17.25,0,27.96582,9.54883,27.96582,24.91992s-10.71582,24.91895-27.96582,24.91895h-14.4502Zm0-42.28125h14.4502c11.59131,0,18.51172-6.24512,18.51172-16.70606,0-10.61719-6.82959-16.707-18.73731-16.707H336.56387Z"/><path class="cls-1" d="M442.82755,924.57755H397.04922V840.67032h9.22852v75.69433h36.54981Z"/><path class="cls-1" d="M524.19913,924.57755h-9.81641l-9.25-21.09473H466.05508l-9.13769,21.09473h-9.939l37.73877-85.26075h1.97608ZM469.59464,895.269h31.99511c-5.86719-13.45019-10.91406-25.13476-15.89746-37.04883-4.22558,9.91407-8.40918,19.47461-12.81543,29.542Z"/><path class="cls-1" d="M572.454,925.93106c-24.81836,0-43.5332-18.61816-43.5332-43.30762,0-24.28418,19.12207-43.30664,43.5332-43.30664a54.12569,54.12569,0,0,1,25.57324,6.36817l.7002.38183v9.417l-1.95215-.99317c-8.46-4.30469-16.415-6.39746-24.32129-6.39746-19.49219,0-34.19141,14.84473-34.19141,34.53027,0,20.00782,14.37989,34.53028,34.19141,34.53028a54.64391,54.64391,0,0,0,24.88574-6.28418l1.95215-.99317v9.42578l-.71094.37891A56.08574,56.08574,0,0,1,572.454,925.93106Z"/><path class="cls-1" d="M669.79581,924.57755H617.24893V840.67032h50.85449v8.21289h-41.626v29.126h35.4209v8.21386h-35.4209v30.1416h43.31836Z"/><path class="cls-1" d="M462.79483,155.12149h-9.22852v-75.356h-9.814V71.21426h19.04248Z"/><path class="cls-1" d="M514.92178,156.475c-18.06006,0-30.67334-17.8086-30.67334-43.30713,0-25.499,12.61328-43.30762,30.67334-43.30762,18.05957,0,30.67286,17.80859,30.67286,43.30762C545.59464,138.66641,532.98135,156.475,514.92178,156.475Zm0-77.83741c-12.6914,0-21.21923,13.877-21.21923,34.53028s8.52783,34.53027,21.21923,34.53027,21.21875-13.87695,21.21875-34.53027S527.61319,78.6376,514.92178,78.6376Z"/><path class="cls-1" d="M474.26212,292.59512l4.69921-9.73388a1.49473,1.49473,0,0,0-1.34619-2.144H430.9545A1.49436,1.49436,0,0,0,429.6,282.84268l4.52978,9.72461.00049.001a1.47735,1.47735,0,0,0,.20947.31915v66.068h-2.97119v5.78907h45.83252v-5.78907h-2.9707V292.64218C474.23941,292.62527,474.25375,292.61246,474.26212,292.59512Zm-11.70289-1.1773.51331-8.6811h5.442l-1.20691,8.68226Zm-2.02258-.00055-4.85559-.00122v-8.67933h5.36878Zm-6.87512-.00171-4.84943-.00122-.52661-8.67762h5.376Zm-6.8725-.00177-4.77508-.00116-1.18805-8.67591h5.43658Zm25.79779.00653-3.2406-.00079,1.207-8.68281h6.22553Zm-40.8081-8.6836h7.00866l1.18793,8.67536-4.15607-.001Zm35.93945,54.75049h-7.57129v-11.3081h7.57129Zm0-14.67334h-7.57129V311.46768h7.57129Zm-9.58984,0h-7.8794V311.46768h7.8794Zm0,3.36524v11.3081h-7.8794v-11.3081Zm0,13.32666v11.15576h-7.8794V339.50577Zm2.01855,0h7.57129v11.15576h-7.57129Zm7.57129-30.05664h-7.57129V298.47159h7.57129Zm-9.58984,0h-7.8794V298.47159h7.8794Zm-9.89795,0h-7.38526V298.47159h7.38526Zm-7.38526,2.01855h7.38526v11.34619h-7.38526Zm0,14.71143h7.38526v11.3081h-7.38526Zm0,13.32666h7.38526v11.15576h-7.38526Zm0,13.17431h26.873v6.27539h-26.873Zm28.8916,6.27539V296.453H438.82657v62.50244h-2.46826V293.81485h35.85351v65.14062Z"/><path class="cls-1" d="M566.59854,292.59512l4.69824-9.73388a1.49426,1.49426,0,0,0-1.34472-2.144H523.29092a1.49454,1.49454,0,0,0-1.35449,2.12549l4.53028,9.72461.001.00342a1.48013,1.48013,0,0,0,.208.31488v66.06988H523.705v5.78907h45.833v-5.78907h-2.9707v-66.314C566.57614,292.62485,566.5903,292.61221,566.59854,292.59512Zm-11.70282-1.1773.51367-8.6811H560.851L559.6445,291.419Zm-2.02264-.00055-4.85559-.00122v-8.67933h5.3692Zm-6.87512-.00171-4.84986-.00122-.52576-8.67762H545.998Zm-6.87293-.00177-4.77472-.00116-1.18841-8.67591h5.43737Zm25.79871.00653-3.24067-.00079,1.20661-8.68281h6.22449Zm-40.8086-8.6836h7.00916l1.18835,8.67536-4.15649-.001Zm35.93848,54.75049h-7.56934v-11.3081h7.56934Zm0-14.67334h-7.56934V311.46768h7.56934Zm-9.58887,0h-7.8789V311.46768h7.8789Zm0,3.36524v11.3081h-7.8789v-11.3081Zm0,13.32666v11.15576h-7.8789V339.50577Zm2.01953,0h7.56934v11.15576h-7.56934Zm7.56934-30.05664h-7.56934V298.47159h7.56934Zm-9.58887,0h-7.8789V298.47159h7.8789Zm-9.89844,0h-7.38476V298.47159h7.38476Zm-7.38476,2.01855h7.38476v11.34619h-7.38476Zm0,14.71143h7.38476v11.3081h-7.38476Zm0,13.32666h7.38476v11.15576h-7.38476Zm0,13.17431h26.87207v6.27539H533.18155Zm28.8916,6.27539V296.453H531.162v62.50244h-2.4668V293.81485h35.85254v65.14062Z"/><path class="cls-1" d="M665.07217,292.59512l4.69825-9.73388a1.49426,1.49426,0,0,0-1.34571-2.144H621.76456a1.49454,1.49454,0,0,0-1.3545,2.12549l4.53028,9.72461a1.47517,1.47517,0,0,0,.209.31915v66.069h-2.9707v5.78907h45.833v-5.78907h-2.97071v-66.314C665.04977,292.62485,665.06393,292.61221,665.07217,292.59512Zm-11.70288-1.1773.51282-8.6811h5.44238l-1.20727,8.68226Zm-2.02264-.00055-4.85553-.00122v-8.67933h5.36835Zm-6.87506-.00171-4.84992-.00122-.52661-8.67762h5.37653Zm-6.873-.00177-4.77466-.00116-1.18841-8.67591h5.43652Zm25.79877.00653-3.24152-.00079,1.2074-8.68281h6.22455Zm-40.80859-8.6836h7.00915l1.18836,8.67536-4.1565-.001Zm35.93847,54.75049h-7.56933v-11.3081h7.56933Zm0-14.67334h-7.56933V311.46768h7.56933Zm-9.58886,0h-7.87891V311.46768h7.87891Zm0,3.36524v11.3081h-7.87891v-11.3081Zm0,13.32666v11.15576h-7.87891V339.50577Zm2.01953,0h7.56933v11.15576h-7.56933Zm7.56933-30.05664h-7.56933V298.47159h7.56933Zm-9.58886,0h-7.87891V298.47159h7.87891Zm-9.89844,0h-7.38477V298.47159H639.04Zm-7.38477,2.01855H639.04v11.34619h-7.38477Zm0,14.71143H639.04v11.3081h-7.38477Zm0,13.32666H639.04v11.15576h-7.38477Zm0,13.17431h26.87207v6.27539H631.65518Zm28.8916,6.27539V296.453H629.63565v62.50244h-2.4668V293.81485h35.85254v65.14062Z"/><path class="cls-1" d="M746.95108,292.59512l4.69922-9.73388a1.49426,1.49426,0,0,0-1.3457-2.144H703.64444a1.49453,1.49453,0,0,0-1.35449,2.12549l4.52929,9.72363a1.47726,1.47726,0,0,0,.209.31946v66.0697h-2.9707v5.78907h45.833v-5.78907h-2.9707V292.64182C746.92868,292.625,746.9429,292.61227,746.95108,292.59512Zm-11.70282-1.1773.51367-8.6811h5.44245L739.9971,291.419Zm-2.02264-.00055-4.85462-.00122v-8.67933h5.36823Zm-6.87415-.00171-4.84991-.00122-.52661-8.67762h5.37652Zm-6.873-.00177-4.77564-.00116-1.18842-8.67591h5.4375Zm25.79779.00653-3.24054-.00079,1.20739-8.68281h6.22455Zm-40.80762-8.6836h7.00818l1.18835,8.67536-4.15552-.001Zm35.93848,54.75049h-7.57032v-11.3081h7.57032Zm0-14.67334h-7.57032V311.46768h7.57032Zm-9.58985,0h-7.87793V311.46768h7.87793Zm0,3.36524v11.3081h-7.87793v-11.3081Zm0,13.32666v11.15576h-7.87793V339.50577Zm2.01953,0h7.57032v11.15576h-7.57032Zm7.57032-30.05664h-7.57032V298.47159h7.57032Zm-9.58985,0h-7.87793V298.47159h7.87793Zm-9.89746,0h-7.38477V298.47159h7.38477Zm-7.38477,2.01855h7.38477v11.34619h-7.38477Zm0,14.71143h7.38477v11.3081h-7.38477Zm0,13.32666h7.38477v11.15576h-7.38477Zm0,13.17431h26.87208v6.27539H713.53506Zm28.89161,6.27539V296.453H711.51553v62.50244h-2.46777V293.81485H744.9003v65.14062Z"/><path class="cls-1" d="M665.07217,520.6752l4.69825-9.7334a1.49478,1.49478,0,0,0-1.34571-2.14453H621.76456a1.49446,1.49446,0,0,0-1.3545,2.126l4.5293,9.72363a1.4773,1.4773,0,0,0,.21.321v66.06769h-2.9707v5.79h45.833v-5.79h-2.97071V520.72147C665.04977,520.7048,665.06393,520.69223,665.07217,520.6752ZM653.36929,519.498l.51288-8.68122h5.44245l-1.20734,8.68231Zm-2.02264-.00049-4.85553-.00116V510.8168h5.36841Zm-6.87506-.00165-4.84992-.00116-.52661-8.67792h5.37653Zm-6.87305-.00165-4.77466-.00116-1.18841-8.67627H637.072Zm25.79883.00617-3.24164-.0008,1.2074-8.6828h6.22467Zm-40.80859-8.6836H629.598l1.18836,8.67578-4.15656-.001Zm35.93847,54.75h-7.56933V554.25919h7.56933Zm0-14.67285h-7.56933v-11.3457h7.56933Zm-9.58886,0h-7.87891v-11.3457h7.87891Zm0,3.36524V565.5668h-7.87891V554.25919Zm0,13.32714v11.15528h-7.87891V567.58633Zm2.01953,0h7.56933v11.15528h-7.56933Zm7.56933-30.05761h-7.56933V526.55215h7.56933Zm-9.58886,0h-7.87891V526.55215h7.87891Zm-9.89844,0h-7.38477V526.55215H639.04Zm-7.38477,2.01953H639.04V550.894h-7.38477Zm0,14.71094H639.04V565.5668h-7.38477Zm0,13.32714H639.04v11.15528h-7.38477Zm0,13.17481h26.87207v6.27441H631.65518Zm28.8916,6.27441V524.53262H629.63565v62.50293h-2.4668V521.8959h35.85254v65.13965Z"/><path class="cls-1" d="M746.95108,520.67618l4.69922-9.73438a1.49478,1.49478,0,0,0-1.3457-2.14453H703.64444a1.49445,1.49445,0,0,0-1.35449,2.126l4.52929,9.72363a1.47845,1.47845,0,0,0,.209.31964v66.069h-2.9707v5.79h45.833v-5.79h-2.9707v-66.3128C746.92868,520.706,746.9429,520.69333,746.95108,520.67618ZM735.24832,519.498l.51361-8.68122h5.44257l-1.20734,8.68231Zm-2.02264-.00049-4.85468-.00116V510.8168h5.36829Zm-6.87421-.00165-4.84991-.00116-.52661-8.67792h5.37652Zm-6.873-.00165-4.77563-.00116-1.18842-8.67627h5.4375Zm25.79786.00617-3.24067-.0008,1.2074-8.6828h6.22467Zm-40.80762-8.6836h7.00824l1.18835,8.67578-4.15558-.001Zm35.93848,54.75h-7.57032V554.25919h7.57032Zm0-14.67285h-7.57032v-11.3457h7.57032Zm-9.58985,0h-7.87793v-11.3457h7.87793Zm0,3.36524V565.5668h-7.87793V554.25919Zm0,13.32714v11.15528h-7.87793V567.58633Zm2.01953,0h7.57032v11.15528h-7.57032Zm7.57032-30.05761h-7.57032V526.55215h7.57032Zm-9.58985,0h-7.87793V526.55215h7.87793Zm-9.89746,0h-7.38477V526.55215h7.38477Zm-7.38477,2.01953h7.38477V550.894h-7.38477Zm0,14.71094h7.38477V565.5668h-7.38477Zm0,13.32714h7.38477v11.15528h-7.38477Zm0,13.17481h26.87208v6.27441H713.53506Zm28.89161,6.27441V524.53262H711.51553v62.50293h-2.46777V521.8959H744.9003v65.13965Z"/><path class="cls-1" d="M377.32217,292.59512l4.69922-9.73388a1.49473,1.49473,0,0,0-1.3457-2.144H334.015a1.495,1.495,0,0,0-1.355,2.12549l4.53028,9.72461.00049.001a1.47612,1.47612,0,0,0,.209.31842v66.06878h-2.9707v5.78907h45.832v-5.78907h-2.9707V292.64236C377.29941,292.6254,377.31381,292.61252,377.32217,292.59512Zm-11.70282-1.1773.51368-8.6811H371.575l-1.20727,8.68226Zm-2.02264-.00055-4.8551-.00122v-8.67933h5.36871Zm-6.87463-.00171-4.84986-.00122-.52624-8.67762h5.3761Zm-6.87293-.00177-4.77472-.00116-1.18841-8.67591h5.437Zm25.79773.00653-3.24054-.00079,1.2074-8.68281h6.225Zm-40.8081-8.6836h7.00866l1.18836,8.67536-4.156-.001Zm35.93945,54.75049h-7.5708v-11.3081h7.5708Zm0-14.67334h-7.5708V311.46768h7.5708Zm-9.58936,0h-7.87939V311.46768h7.87939Zm0,3.36524v11.3081h-7.87939v-11.3081Zm0,13.32666v11.15576h-7.87939V339.50577Zm2.01856,0h7.5708v11.15576h-7.5708Zm7.5708-30.05664h-7.5708V298.47159h7.5708Zm-9.58936,0h-7.87939V298.47159h7.87939Zm-9.89795,0h-7.38574V298.47159h7.38574Zm-7.38574,2.01855h7.38574v11.34619h-7.38574Zm0,14.71143h7.38574v11.3081h-7.38574Zm0,13.32666h7.38574v11.15576h-7.38574Zm0,13.17431h26.87305v6.27539H343.90518Zm28.8916,6.27539V296.453H341.88663v62.50244h-2.46826V293.81485h35.85351v65.14062Z"/><path class="cls-1" d="M295.43253,292.59512l4.69921-9.73388a1.49473,1.49473,0,0,0-1.34619-2.144H252.12491a1.495,1.495,0,0,0-1.355,2.12549l4.53027,9.72461.00049.001a1.47649,1.47649,0,0,0,.209.31842v66.06878H252.539v5.78907h45.83252v-5.78907H295.4003V292.64291C295.40945,292.62576,295.424,292.6127,295.43253,292.59512Zm-11.70331-1.1773.51367-8.6811h5.442L288.478,291.419Zm-2.02265-.00055-4.8551-.00122v-8.67933h5.36871Zm-6.87463-.00171-4.84985-.00122-.52625-8.67762h5.3761Zm-6.87293-.00177-4.77465-.00116-1.18805-8.67591h5.43652Zm25.79822.00653-3.2406-.00079,1.207-8.68281h6.22553Zm-40.80859-8.6836h7.00915l1.18793,8.67536-4.15607-.001Zm35.93994,54.75049h-7.57129v-11.3081h7.57129Zm0-14.67334h-7.57129V311.46768h7.57129Zm-9.58984,0h-7.8794V311.46768h7.8794Zm0,3.36524v11.3081h-7.8794v-11.3081Zm0,13.32666v11.15576h-7.8794V339.50577Zm2.01855,0h7.57129v11.15576h-7.57129Zm7.57129-30.05664h-7.57129V298.47159h7.57129Zm-9.58984,0h-7.8794V298.47159h7.8794Zm-9.898,0H262.015V298.47159h7.38574Zm-7.38574,2.01855h7.38574v11.34619H262.015Zm0,14.71143h7.38574v11.3081H262.015Zm0,13.32666h7.38574v11.15576H262.015Zm0,13.17431h26.87353v6.27539H262.015Zm28.89209,6.27539V296.453H259.99649v62.50244h-2.46826V293.81485h35.85351v65.14062Z"/><path class="cls-1" d="M377.32217,520.6752l4.69873-9.7334a1.49431,1.49431,0,0,0-1.34521-2.14453H334.015a1.49494,1.49494,0,0,0-1.355,2.126l4.53028,9.72461a1.47718,1.47718,0,0,0,.20947.31946v66.06823h-2.9707v5.79h45.832v-5.79h-2.9707V520.72244C377.29947,520.70547,377.31381,520.6926,377.32217,520.6752ZM365.61942,519.498l.51361-8.68122h5.44207l-1.20733,8.68231Zm-2.02265-.00049-4.85516-.00116V510.8168h5.36877Zm-6.87469-.00165-4.84986-.00116-.52624-8.67792h5.3761Zm-6.873-.00165-4.77472-.00116L343.886,510.8168h5.43695Zm25.79828.00617-3.24115-.0008,1.2074-8.6828h6.22516Zm-40.80859-8.6836h7.00872l1.18836,8.67578-4.15558-.001Zm35.93945,54.75h-7.5708V554.25919h7.5708Zm0-14.67285h-7.5708v-11.3457h7.5708Zm-9.58936,0h-7.87939v-11.3457h7.87939Zm0,3.36524V565.5668h-7.87939V554.25919Zm0,13.32714v11.15528h-7.87939V567.58633Zm2.01856,0h7.5708v11.15528h-7.5708Zm7.5708-30.05761h-7.5708V526.55215h7.5708Zm-9.58936,0h-7.87939V526.55215h7.87939Zm-9.89795,0h-7.38574V526.55215h7.38574Zm-7.38574,2.01953h7.38574V550.894h-7.38574Zm0,14.71094h7.38574V565.5668h-7.38574Zm0,13.32714h7.38574v11.15528h-7.38574Zm0,13.17481h26.87305v6.27441H343.90518Zm28.8916,6.27441V524.53262H341.88663v62.50293h-2.46826V521.8959h35.85351v65.13965Z"/><path class="cls-1" d="M295.43253,520.6752l4.69873-9.7334a1.49431,1.49431,0,0,0-1.34571-2.14453H252.12491a1.49493,1.49493,0,0,0-1.355,2.126l4.53027,9.72461a1.47718,1.47718,0,0,0,.20947.31946v66.06823H252.539v5.79h45.83252v-5.79H295.4003V520.72293C295.40945,520.70578,295.424,520.69278,295.43253,520.6752ZM283.72928,519.498l.51361-8.68122H289.685l-1.20691,8.68231Zm-2.02265-.00049-4.85516-.00116V510.8168h5.36878Zm-6.87469-.00165-4.84985-.00116-.52625-8.67792h5.3761Zm-6.873-.00165-4.77465-.00116-1.18805-8.67627h5.43652Zm25.79877.00617-3.24115-.0008,1.207-8.6828h6.22559Zm-40.80908-8.6836h7.00922l1.18792,8.67578-4.15564-.001Zm35.93994,54.75h-7.57129V554.25919h7.57129Zm0-14.67285h-7.57129v-11.3457h7.57129Zm-9.58984,0h-7.8794v-11.3457h7.8794Zm0,3.36524V565.5668h-7.8794V554.25919Zm0,13.32714v11.15528h-7.8794V567.58633Zm2.01855,0h7.57129v11.15528h-7.57129Zm7.57129-30.05761h-7.57129V526.55215h7.57129Zm-9.58984,0h-7.8794V526.55215h7.8794Zm-9.898,0H262.015V526.55215h7.38574Zm-7.38574,2.01953h7.38574V550.894H262.015Zm0,14.71094h7.38574V565.5668H262.015Zm0,13.32714h7.38574v11.15528H262.015Zm0,13.17481h26.87353v6.27441H262.015Zm28.89209,6.27441V524.53262H259.99649v62.50293h-2.46826V521.8959h35.85351v65.13965Z"/><polygon class="cls-1" points="768.496 285.124 768.496 275.329 754.308 275.329 754.308 285.124 758.279 285.124 758.279 289.937 757.649 289.937 757.649 293.274 758.345 293.274 758.345 296.115 757.218 296.115 757.218 300.785 758.345 300.785 758.345 357.404 757.218 357.404 757.218 362.074 758.345 362.074 758.345 424.214 757.218 424.214 757.218 428.884 758.345 428.884 758.345 485.503 757.218 485.503 757.218 490.173 758.345 490.173 758.345 555.243 757.218 555.243 757.218 559.912 758.345 559.912 758.345 604.77 764.628 604.77 764.628 559.912 765.755 559.912 765.755 555.243 764.628 555.243 764.628 490.173 765.755 490.173 765.755 485.503 764.628 485.503 764.628 428.884 765.755 428.884 765.755 424.214 764.628 424.214 764.628 362.074 765.755 362.074 765.755 357.404 764.628 357.404 764.628 300.785 765.755 300.785 765.755 296.115 764.628 296.115 764.628 293.274 765.21 293.274 765.21 289.937 764.581 289.937 764.581 285.124 768.496 285.124"/><polygon class="cls-1" points="247.447 285.124 247.447 275.329 233.257 275.329 233.257 285.124 237.228 285.124 237.228 289.937 236.6 289.937 236.6 293.274 237.294 293.274 237.294 296.115 236.167 296.115 236.167 300.785 237.294 300.785 237.294 357.404 236.167 357.404 236.167 362.074 237.294 362.074 237.294 424.214 236.167 424.214 236.167 428.884 237.294 428.884 237.294 485.503 236.167 485.503 236.167 490.173 237.294 490.173 237.294 555.243 236.167 555.243 236.167 559.912 237.294 559.912 237.294 604.77 243.579 604.77 243.579 559.912 244.705 559.912 244.705 555.243 243.579 555.243 243.579 490.173 244.705 490.173 244.705 485.503 243.579 485.503 243.579 428.884 244.705 428.884 244.705 424.214 243.579 424.214 243.579 362.074 244.705 362.074 244.705 357.404 243.579 357.404 243.579 300.785 244.705 300.785 244.705 296.115 243.579 296.115 243.579 293.274 244.161 293.274 244.161 289.937 243.532 289.937 243.532 285.124 247.447 285.124"/><path class="cls-1" d="M440.10684,524.42032V580.81h19.37793V524.42032Zm2.01953,29.87305h6.78711v11.32421h-6.78711Zm6.78711-14.76563v11.40039h-6.78711V539.52774Zm2.01953,14.76563h6.53223v11.32421H450.933Zm0-3.36524V539.52774h6.53223v11.40039Zm6.53223-13.41992H450.933V526.43985h6.53223Zm-8.55176-11.06836v11.06836h-6.78711V526.43985Zm-6.78711,41.19727h6.78711v11.15332h-6.78711Zm8.80664,11.15332V567.63712h6.53223v11.15332Z"/><path class="cls-1" d="M463.49942,520.44571l3.84912-9.79395a1.67116,1.67116,0,0,0-.21875-1.47363,1.27523,1.27523,0,0,0-1.03271-.54H432.75235a1.27179,1.27179,0,0,0-1.02783.53418,1.67186,1.67186,0,0,0-.22852,1.46387l4.666,9.80957a1.51775,1.51775,0,0,0,.19336.36029v66.38873h-3.15381v5.77149h33.15088v-5.77149h-2.96631V520.67319A1.29609,1.29609,0,0,0,463.49942,520.44571Zm-13.18066-1.10919v-8.6789H456.894l-1.20721,8.68109Zm-2.01954-.0008-4.57482-.00189-1.18854-8.67621h5.76336Zm13.4668.0055-4.04083-.00165,1.20727-8.68195h6.24616Zm-28.03418-8.6836h6.76557l1.18841,8.67542-3.81726-.00159Zm4.64307,76.53711V521.7836h22.9917v65.41113Z"/><path class="cls-1" d="M543.08878,524.42032V580.81h19.37793V524.42032Zm2.01953,29.87305h6.78711v11.32421h-6.78711Zm6.78711-14.76563v11.40039h-6.78711V539.52774Zm2.01953,14.76563h6.53222v11.32421H553.915Zm0-3.36524V539.52774h6.53222v11.40039Zm6.53222-13.41992H553.915V526.43985h6.53222Zm-8.55175-11.06836v11.06836h-6.78711V526.43985Zm-6.78711,41.19727h6.78711v11.15332h-6.78711Zm8.80664,11.15332V567.63712h6.53222v11.15332Z"/><path class="cls-1" d="M566.49307,520.41446l3.46485-9.7627a1.67091,1.67091,0,0,0-.21778-1.47363,1.2761,1.2761,0,0,0-1.0332-.54H535.73428a1.27336,1.27336,0,0,0-1.02832.53418,1.6734,1.6734,0,0,0-.22851,1.46387l4.667,9.80957a1.5108,1.5108,0,0,0,.19336.36108v66.38794h-3.1543v5.77149h33.15039v-5.77149h-2.96582V520.66629A1.434,1.434,0,0,0,566.49307,520.41446Zm-13.19238-1.07794v-8.6789h6.57568l-1.20721,8.68109Zm-2.01953-.0008-4.57532-.00189-1.18854-8.67621h5.76386Zm13.45117.0055-4.02472-.00165,1.20728-8.68195h5.8985Zm-28.01855-8.6836h6.766l1.18841,8.67542-3.81775-.00159Zm4.64355,76.53711V521.7836h22.99121v65.41113Z"/><rect class="cls-1" x="221.39688" y="598.89005" width="221.72266" height="2.30273"/><rect class="cls-1" x="557.0419" y="591.26309" width="2.30273" height="43.93945"/><path class="cls-1" d="M559.0029,591.7423s1.4043,0,1.4043-1.30745-2.27522-6.29515-2.27522-6.29515-2.27594,4.98769-2.27594,6.29515,1.4043,1.30745,1.4043,1.30745Z"/><rect class="cls-1" x="581.65269" y="591.28718" width="2.30273" height="43.93934"/><path class="cls-1" d="M583.6154,591.759s1.4016,0,1.4016-1.30494-2.27085-6.28305-2.27085-6.28305-2.27156,4.97811-2.27156,6.28305,1.4016,1.30494,1.4016,1.30494Z"/><rect class="cls-1" x="606.26347" y="591.31127" width="2.30273" height="43.93924"/><path class="cls-1" d="M608.2279,591.77568s1.39891,0,1.39891-1.30243-2.26649-6.271-2.26649-6.271-2.26719,4.96853-2.26719,6.271,1.39891,1.30243,1.39891,1.30243Z"/><rect class="cls-1" x="630.87426" y="591.33536" width="2.30273" height="43.93913"/><path class="cls-1" d="M632.8404,591.79237s1.39621,0,1.39621-1.29991-2.26211-6.25887-2.26211-6.25887-2.26282,4.95895-2.26282,6.25887,1.3962,1.29991,1.3962,1.29991Z"/><rect class="cls-1" x="655.48504" y="591.35945" width="2.30273" height="43.93902"/><path class="cls-1" d="M657.4529,591.80906s1.39351,0,1.39351-1.2974-2.25774-6.24677-2.25774-6.24677-2.25845,4.94936-2.25845,6.24677,1.39351,1.2974,1.39351,1.2974Z"/><rect class="cls-1" x="680.09583" y="591.38353" width="2.30273" height="43.93891"/><path class="cls-1" d="M682.0654,591.82576s1.39081,0,1.39081-1.2949-2.25337-6.23468-2.25337-6.23468-2.25408,4.93979-2.25408,6.23468,1.39082,1.2949,1.39082,1.2949Z"/><rect class="cls-1" x="704.70661" y="591.40762" width="2.30273" height="43.9388"/><path class="cls-1" d="M706.6779,591.84245s1.38811,0,1.38811-1.29239-2.249-6.22258-2.249-6.22258-2.2497,4.9302-2.2497,6.22258,1.38812,1.29239,1.38812,1.29239Z"/><rect class="cls-1" x="729.3174" y="591.43171" width="2.30273" height="43.93869"/><path class="cls-1" d="M731.2904,591.85914s1.38542,0,1.38542-1.28987-2.24463-6.2105-2.24463-6.2105-2.24534,4.92062-2.24534,6.2105,1.38542,1.28987,1.38542,1.28987Z"/><rect class="cls-1" x="753.92819" y="591.4558" width="2.30273" height="43.93859"/><path class="cls-1" d="M755.9029,591.87583s1.38272,0,1.38272-1.28736-2.24026-6.1984-2.24026-6.1984-2.241,4.911-2.241,6.1984,1.38272,1.28736,1.38272,1.28736Z"/><rect class="cls-1" x="778.53897" y="591.47989" width="2.30273" height="43.93848"/><path class="cls-1" d="M780.5154,591.89252s1.38,0,1.38-1.28485-2.23589-6.18631-2.23589-6.18631-2.23659,4.90146-2.23659,6.18631,1.38,1.28485,1.38,1.28485Z"/><rect class="cls-1" x="558.23721" y="598.89005" width="221.72266" height="2.30273"/><path class="cls-1" d="M474.38854,535.21316a2.13375,2.13375,0,0,0-4.267,0h-.01068v4.65141h.00393a2.1336,2.1336,0,0,0,4.26677,0h.01069v-4.65141Z"/><path class="cls-1" d="M531.73447,535.21316a2.13375,2.13375,0,0,0-4.26705,0h-.01068v4.65141h.00393a2.1336,2.1336,0,0,0,4.26677,0h.01068v-4.65141Z"/><polygon class="cls-1" points="501.114 498.163 501.115 498.163 501.115 498.163 501.114 498.163"/><path class="cls-1" d="M518.66753,512.56015c-.31379-.75033-.68-.742-1.44727-2.00735-.26712-.44012-1.035-1.70673-.7003-2.05409.29346-.30441,1.15924.38164,1.72727-.04667a.82262.82262,0,0,0,.327-.7003c-.10221-.76944-2.04135-1.54733-3.6415-1.30712a2.98044,2.98044,0,0,0-1.65112.81039,15.056,15.056,0,0,0,.00573-1.76743c.08646-.01575.25939,1.07679.607,1.09712.1798.01045.2216-.27729.56-.46682.473-.26526.87953.0239,1.02669-.14015.25538-.284-.4432-1.73028-1.727-2.63758a5.61093,5.61093,0,0,0-3.57136-.93363c-1.23684.10765-2.21886.63946-2.28757.49015-.0252-.0554.09734-.156.67682-.60682,1.25058-.972,1.35078-1.02454,1.51741-1.07378a1.70874,1.70874,0,0,1,1.68061.25681c.19411.24479.08016.44449.35043.72349a1.79925,1.79925,0,0,0,.77016.39682c.343.11982.5142.17965.607.11681.23362-.15919.14258-.90486-.23363-1.42393-.50217-.69214-1.35135-.76071-1.33074-.84031a2.1525,2.1525,0,0,1,2.031.5603c.698.826.17007,2.15558.74668,2.4041.10078.04337.10422-.00229.74726-.09334.5978-.08474.71576-.06227,1.30669-.14.69973-.09191,1.04959-.138,1.12059-.23348.41457-.557-.67854-2.82611-2.35742-3.31454-.5583-.16234-1.07823-.09792-1.54032-.56016-.38937-.38909-.27772-.69128-.65392-1.09712a2.45674,2.45674,0,0,0-1.79742-.63015,3.21563,3.21563,0,0,0-1.29867.34006c.26683-.2322.47183-.49373.43518-.73688-.06585-.44048-.89384-.62858-1.00378-.65349a2.12128,2.12128,0,0,0-1.96061.56016c-.53081.564-.48443,1.29194-.65335,1.28378-.185-.009-.08245-.87394-.58349-1.79727-.0836-.15332-.73866-1.36109-1.63422-1.30712-.34643.0209-.73809.17464-.74668.35-.012.24006.706.24536,1.07822.77459a1.80482,1.80482,0,0,1,.09734,1.49451,2.45922,2.45922,0,0,1-2.27039,1.59629,2.04812,2.04812,0,0,1-1.86326-1.05668v-.02648l-.00917.01324-.00887-.01324v.02648A2.04886,2.04886,0,0,1,499.251,499.246a2.45953,2.45953,0,0,1-2.2704-1.59629,1.80412,1.80412,0,0,1,.09763-1.49451c.3722-.52923,1.09-.53453,1.07823-.77459-.00859-.17537-.40054-.32911-.747-.35-.89527-.054-1.55062,1.1538-1.63394,1.30712-.501.92333-.39853,1.78826-.58349,1.79727-.16892.00816-.12253-.71976-.65363-1.28378a2.12128,2.12128,0,0,0-1.96061-.56016c-.10994.02491-.93764.213-1.00378.65349-.03636.24315.16835.50468.43547.73688a3.217,3.217,0,0,0-1.299-.34006,2.45674,2.45674,0,0,0-1.79742.63015c-.3762.40584-.26455.708-.65363,1.09712-.4621.46224-.982.39782-1.54061.56016-1.6786.48843-2.772,2.75753-2.35742,3.31454.07129.09548.42086.14157,1.12059.23348.59122.07773.70889.05526,1.307.14.64275.091.64647.13671.747.09334.5769-.24852.04867-1.57811.747-2.4041a2.152,2.152,0,0,1,2.03076-.5603c.0209.0796-.82857.14817-1.33046.84031-.37649.51907-.46753,1.26474-.23362,1.42393.09248.06284.264.003.607-.11681a1.80087,1.80087,0,0,0,.77016-.39682c.27027-.279.156-.4787.35015-.72349a1.70886,1.70886,0,0,1,1.68061-.25681c.16691.04924.26712.10178,1.51741,1.07378.57976.45078.7023.55142.67682.60682-.06871.14931-1.05074-.3825-2.28757-.49015a5.61054,5.61054,0,0,0-3.57107.93363c-1.28379.9073-1.98266,2.35357-1.72727,2.63758.14716.164.55371-.12511,1.027.14015.33841.18953.38021.47727.56.46682.34757-.02033.5205-1.11287.607-1.09712a15.01653,15.01653,0,0,0,.00544,1.7675,2.97864,2.97864,0,0,0-1.65083-.81046c-1.60016-.24021-3.53929.53768-3.6415,1.30712a.82189.82189,0,0,0,.327.7003c.568.42831,1.43382-.25774,1.72728.04667.33469.34736-.43347,1.614-.7003,2.05409-.7673,1.26539-1.13348,1.257-1.44727,2.00735-.61641,1.47425.06757,3.249.467,3.26787.34013.016.471-1.24306,1.12031-1.30719.3825-.03772.59322.37384,1.07364.28015.35359-.069.43948-.33068.65363-.28015.32467.07673.23907.70538.607.887a.923.923,0,0,0,1.1203-.51349c.12569-.61448-1.34591-1.1392-1.21364-1.58719.09849-.33469,1.06047-.51829,1.82061-.18675.85175.37148.78361,1.09891,1.44727,1.68061,1.64109,1.43882,5.258-.20671,5.41515-.28015,1.69836-.79378,2.926-2.07678,3.08121-1.914.13456.14114-.877,1.01129-.607,1.63393a1.0048,1.0048,0,0,0,1.26031.42015c.26254-.18538.14917-.59257.37363-.70022.23792-.11417.63073.21494.9156.49659v.01689l.00887-.00844.00917.00844v-.01689c.28458-.28165.67768-.61076.9156-.49659.22446.10765.11108.51484.37334.70022a1.00505,1.00505,0,0,0,1.26059-.42015c.27-.62264-.74152-1.49279-.607-1.63393.15518-.16277,1.38285,1.12023,3.0812,1.914.15719.07344,3.77406,1.719,5.41516.28015.66337-.5817.59523-1.30913,1.44727-1.68061.76013-.33154,1.72183-.14794,1.8206.18675.13228.448-1.33933.97271-1.21364,1.58719a.9229.9229,0,0,0,1.12031.51349c.3679-.18159.282-.81024.60668-.887.21415-.05053.30033.21115.65392.28015.48041.09369.69113-.31787,1.07364-.28015.64933.06413.77989,1.32323,1.1203,1.30719C518.6,515.80913,519.28394,514.0344,518.66753,512.56015ZM498.5183,509.7125c-.72692,1.47546-3.81843,1.69384-6.02212.74689a5.51711,5.51711,0,0,1-1.90363-1.36009c-.00716-.1813-.28058-.51463-.23219-.554.02634-.02133.11108.082.2863.12783a.77908.77908,0,0,0,.27371.01231c.33068-.04566.38107-.34557.58377-.37348.38279-.05268.60038.98374,1.23712,1.027.06585.00458.22818.0156.28-.07.12139-.20013-.49216-.71261-.37363-.887.05841-.08561.22561.00959.37363-.09334.17836-.124.16176-.41972.16348-.58363a2.6208,2.6208,0,0,1,.51334-1.49379,3.47655,3.47655,0,0,1,3.348-.34686,1.77807,1.77807,0,0,0-.99033-.09662,2.1347,2.1347,0,0,0-1.51741,1.844,1.7,1.7,0,0,0,.4203,1.49386c.04122.03214.22789.17744.35015.11667.14515-.07215.08417-.3772.20986-.42015.11566-.03937.23763.194.327.16341.17178-.05905-.00258-1.02275.02347-1.027a1.87708,1.87708,0,0,0,.28.79364c.25567.35409.7232.58986.887.46682.02577-.0194.06671-.06478.06986-.23341.01-.50776-.34872-.72385-.37334-1.05038-.01518-.2012.09219-.50332.7003-.9103l.64418-.40047.25452.774A2.66754,2.66754,0,0,1,498.5183,509.7125Zm11.23257.74689c-2.20368.947-5.29548.72857-6.02212-.74689a2.66762,2.66762,0,0,1,.18667-2.33417l.25424-.774.64447.40047c.60782.407.71547.7091.7003.9103-.02462.32653-.38336.54262-.37363,1.05038.00344.16863.04438.214.07015.23341.16348.123.6313-.11273.887-.46682a1.87682,1.87682,0,0,0,.28-.79364c.02606.0043-.14859.968.02348,1.027.089.03063.211-.20278.32667-.16341.126.043.065.348.21015.42015.12225.06077.30892-.08453.35015-.11667a1.69993,1.69993,0,0,0,.42-1.49386,2.13394,2.13394,0,0,0-1.51713-1.844,1.778,1.778,0,0,0-.99032.09662,3.47678,3.47678,0,0,1,3.348.34686,2.62093,2.62093,0,0,1,.51305,1.49379c.00172.16391-.01488.45966.16377.58363.14773.10293.31493.00773.37334.09334.11853.17436-.49473.68684-.37334.887.05153.0856.21416.07458.28.07.63674-.04323.85433-1.07965,1.23683-1.027.2027.02791.25309.32782.58406.37348a.78006.78006,0,0,0,.27371-.01231c.17521-.04581.26-.14916.2863-.12783.04839.03936-.225.37269-.23219.554A5.51706,5.51706,0,0,1,509.75087,510.45939Z"/><path class="cls-1" d="M550.20108,634.49649v-.5332a.99522.99522,0,0,0-.25458-.65283l.00849-.00733-3.3584-3.88476v-2.25391H772.22745a1.01234,1.01234,0,0,0,1.01269-1.0127V264.04044a.998.998,0,0,0-.82281-.97388L749.58878,240.8345V221.85294h2.90136v-4.43116h2.40332v-5.30566H699.47159v5.30566h2.40332v4.43116h2.90039v18.808H666.05264v-18.808H668.954v-4.43116h2.40332v-5.30566H615.93546v5.30566h2.40332v4.43116h2.90039v18.808H569.02823v-18.808h2.90039v-4.43116h2.4043v-5.30566H518.91006v5.30566h2.40333v4.43116h2.90136v18.808H476.69131v-18.808h2.90137v-4.43116H481.996v-5.30566H426.57364v5.30566h2.40381v4.43116h2.90088v18.808H379.75186v-18.808h2.90088v-4.43116h2.40381v-5.30566H329.63419v5.30566h2.40332v4.43116h2.90136v18.808H296.413v-18.808h2.90088v-4.43116h2.40381v-5.30566H246.29532v5.30566h2.40332v4.43116H251.6v18.808h-.1988L228.759,263.06967a.99768.99768,0,0,0-.80694.97077V626.15176a1.01224,1.01224,0,0,0,1.0122,1.0127H455.19669v2.209l-3.90723,3.87305.08856.08929a.99129.99129,0,0,0-.23749.62751v.43359H220.52921v5.50684H451.14053v1.26953a1.00984,1.00984,0,0,0,1.00977,1.00976h97.041a1.00984,1.00984,0,0,0,1.00977-1.00976V638.9877H780.84659v-4.49121Zm-99.15771,3.57129H222.36514v-1.835H451.04337ZM701.49112,215.40225v-1.2666h51.38281v1.2666Zm2.40332,4.43115v-2.39306h46.57617v2.39306H703.89444Zm4.67383,5.05127v38.07178h5.28613v-5.0039h26.59766v5.01269H706.79483v-41.1123h40.77441v41.1123h-1.83105V224.88467Zm3.2666,4.28125v31.771H710.5878V226.90421h33.13086v34.09423l-1.24707-.00293V229.16592Zm20.81543,13.58545V231.18546h7.80176v11.56591Zm7.80176,2.01953v11.15284H732.6503V244.7709Zm-17.04-2.01953V231.18546h7.21875v11.56591Zm7.21875,2.01953v11.15284H723.412V244.7709Zm-16.77637-2.01953V231.18546h7.53809v11.56591Zm7.53809,2.01953v11.15284H713.8544V244.7709ZM617.955,215.40225v-1.2666H669.3378v1.2666Zm2.40332,4.43115v-2.39306h46.57617v2.39306H620.35831Zm4.67383,5.05127v38.07178h5.28613v-5.0039h26.59765v5.01269H623.2587v-41.1123h40.77441v41.1123h-1.83105V224.88467Zm3.2666,4.28125v31.771h-1.24707V226.90421h33.13086v34.09423l-1.24707-.00293V229.16592Zm20.81543,13.58545V231.18546h7.80175v11.56591Zm7.80175,2.01953v11.15284h-7.80175V244.7709Zm-17.04-2.01953V231.18546h7.21875v11.56591Zm7.21875,2.01953v11.15284h-7.21875V244.7709Zm-16.77637-2.01953V231.18546h7.53808v11.56591Zm7.53808,2.01953v11.15284h-7.53808V244.7709ZM520.9296,215.40225v-1.2666h51.38379v1.2666Zm2.40332,4.43115v-2.39306h46.57617v2.39306H523.33292Zm4.67382,5.05127v38.07178h5.28711v-5.0039h26.59668v5.01269H526.23428v-41.1123H567.0087v41.1123h-1.83106V224.88467Zm3.26758,4.28125v31.771h-1.248V226.90421h33.13183v34.09423l-1.248-.00293V229.16592Zm20.81543,13.58545V231.18546h7.80078v11.56591Zm7.80078,2.01953v11.15284h-7.80078V244.7709Zm-17.03906-2.01953V231.18546h7.21875v11.56591Zm7.21875,2.01953v11.15284h-7.21875V244.7709Zm-16.77637-2.01953V231.18546h7.53809v11.56591Zm7.53809,2.01953v11.15284h-7.53809V244.7709ZM428.59317,215.40225v-1.2666h51.3833v1.2666Zm2.40381,4.43115v-2.39306h46.57617v2.39306H430.997Zm4.67334,5.05127v38.07178h5.28711v-5.0039h26.59668v5.01269H433.89786v-41.1123h40.77392v41.1123h-1.83056V224.88467Zm3.26758,4.28125v31.771h-1.24805V226.90421h33.13184v34.09423l-1.248-.00293V229.16592Zm20.81543,13.58545V231.18546h7.80078v11.56591Zm7.80078,2.01953v11.15284h-7.80078V244.7709Zm-17.03906-2.01953V231.18546h7.21875v11.56591Zm7.21875,2.01953v11.15284h-7.21875V244.7709Zm-16.77637-2.01953V231.18546h7.53808v11.56591Zm7.53808,2.01953v11.15284h-7.53808V244.7709ZM331.65372,215.40225v-1.2666H383.037v1.2666Zm2.40332,4.43115v-2.39306h46.57617v2.39306H334.057Zm4.67383,5.05127v38.07178h5.28662v-5.0039h26.59716v5.01269H336.9584v-41.1123h40.77393v41.1123h-1.83105V224.88467Zm3.26709,4.28125v31.771H340.7504V226.90421h33.13134v34.09423l-1.24755-.00293V229.16592Zm20.81591,13.58545V231.18546h7.80078v11.56591Zm7.80078,2.01953v11.15284h-7.80078V244.7709Zm-17.03955-2.01953V231.18546h7.21924v11.56591Zm7.21924,2.01953v11.15284H353.5751V244.7709Zm-16.77685-2.01953V231.18546h7.53808v11.56591Zm7.53808,2.01953v11.15284h-7.53808V244.7709ZM248.31485,215.40225v-1.2666h51.3833v1.2666Zm2.40332,4.43115v-2.39306h46.57617v2.39306H250.71817Zm4.67383,5.05127v38.07178h5.28711v-5.0039h26.59668v5.01269H253.61954v-41.1123h40.77392v41.1123H292.5629V224.88467Zm3.26758,4.28125v31.771h-1.248V226.90421h33.13184v34.09423l-1.248-.00293V229.16592ZM279.475,242.75137V231.18546h7.80078v11.56591Zm7.80078,2.01953v11.15284H279.475V244.7709Zm-17.03907-2.01953V231.18546h7.21875v11.56591Zm7.21875,2.01953v11.15284h-7.21875V244.7709Zm-16.77636-2.01953V231.18546h7.53808v11.56591Zm7.53808,2.01953v11.15284h-7.53808V244.7709ZM229.97647,625.13907V265.05264H771.21475V625.13907H546.59659v-2.6709l-12.33594-14.14093V510.09415h4.18066a1.16405,1.16405,0,0,0,1.16309-1.16309v-3.77637a1.16488,1.16488,0,0,0-1.16309-1.16406h-15.835a1.16488,1.16488,0,0,0-1.16308,1.16406v3.77637a1.16405,1.16405,0,0,0,1.16308,1.16309h2.30957v96.69427l-4.30664-3.3609v-5.09021h.043V518.40372H480.57706v79.93359h.043v5.139l-3.42481,3.14313v-96.6933h1.49414a1.004,1.004,0,0,0,1.00244-1.00293v-3.76172a1.004,1.004,0,0,0-1.00244-1.00293h-15.3623a1.00411,1.00411,0,0,0-1.00293,1.00293v3.76172a1.00411,1.00411,0,0,0,1.00293,1.00293h4.1875v98.4212l-12.31787,14.12079v2.6709ZM468.52432,508.1879a.97758.97758,0,0,0-.27087.05468h-4.24671v-2.40039h14.00245v2.40039h-1.55286a.97765.97765,0,0,0-.27087-.05468Zm6.65137,2.01953v97.50879h-5.6416V510.20743Zm-6.1922,99.52832h7.202a.99737.99737,0,0,0,.66552-.26306l.10157.11071,5.07141-4.65429H519.2515l5.88513,4.59277.11151-.14294a.82444.82444,0,0,0,.50958.18884h6.905l10.72937,12.2998h-84.991Zm34.58478-67.91211a2.978,2.978,0,0,1-1.13367,2.32745,1.89065,1.89065,0,0,1-3.71741.006,2.97849,2.97849,0,0,1-1.14111-2.33343c0-.07837.01721-.152.02313-.22888a3.28507,3.28507,0,0,1-.35321-1.46155,3.32617,3.32617,0,0,1,6.65235,0,3.28533,3.28533,0,0,1-.35321,1.46161C503.55106,541.67166,503.56827,541.74527,503.56827,541.82364Zm15.02148,56.51367v4.57227H482.63956v-4.57227Zm4.87305-90.26269v-2.06446h14.12207v2.06446Zm9.11426,2.01953v97.79h-5.97754v-97.79Zm12,113.74609v4.9082H457.21622v-4.9082Zm-87.87122,6.88086h88.34747l1.93036,2.23242H454.4534Zm91.47571,9.44238H453.16006V634.973h95.02149Zm231.02832-2.8125H550.20108v-1.21777H779.20987Z"/><path class="cls-1" d="M543.86612,499.29141H535.9863l2.93158-4.33545h-9.77246l3.13672-4.61035h-10.183l2.79828-4.00586h-9.655l1.5144-2.52441H485.0043l1.341,2.52441h-9.801l2.79828,4.00586h-10.183l3.13672,4.61035h-9.77149l2.93085,4.33545h-7.88007l4.24951,6.21387.73694-.50336.21912.437h5.96777l.29639-.29882a53.872,53.872,0,0,1,19.42432-11.55762c15.47851-5.04981,30.18652-1.13916,43.72265,11.61719l.292.27539h5.89063l.71-.01758.09576-.24982.43549.29767Zm-4.94116,4.24451c-.96064-.89154-1.9256-1.7392-2.893-2.56189h4.64472Zm-4.95508-4.26733c-1.16913-.93061-2.34393-1.79932-3.522-2.63H535.748Zm-6.60358-4.68805q-2.22629-1.39654-4.47162-2.55231h6.20777Zm-5.69745-6.55817-1.78363,2.55463a51.69068,51.69068,0,0,0-5.861-2.20673l.20868-.3479Zm-7.88476-2.52441-1.43976,2.40112a45.31636,45.31636,0,0,0-13.55145-1.54126,46.0727,46.0727,0,0,0-9.751,1.471l-1.23779-2.33087Zm-26.545,2.52441.14312.26935a51.58924,51.58924,0,0,0-5.90912,2.16449l-1.70025-2.43384Zm-9.05262,4.00586c-1.49817.77618-2.90332,1.58691-4.209,2.40686l-1.63721-2.40686Zm-7.48,4.61035c-1.22467.88379-2.32617,1.7442-3.29187,2.54547l-1.72088-2.54547Zm-8.05279,6.99951c-.01367.01477-.02069.03339-.03339.04877l-1.85528-2.71283h4.58874C463.90634,502.294,462.98489,503.27475,462.65372,503.63809Zm70.63037-.18262c-31.82227-29.65234-61.97608-3.20361-65.36035-.03613h-2.229c4.29932-4.15185,16.51074-14.36474,33.18067-15.04345,12.57568-.50293,25.0083,4.55957,36.95556,15.07958Z"/><path class="cls-1" d="M474.28555,403.31924l4.69922-9.73388a1.52072,1.52072,0,0,0-1.36963-2.18115H430.9545a1.51982,1.51982,0,0,0-1.37793,2.1621l4.52978,9.72461a1.50089,1.50089,0,0,0,.207.316v77.13025h-2.94483v5.78907h45.83252v-5.78907h-2.94434V403.362C474.26486,403.34659,474.27792,403.335,474.28555,403.31924Zm-2.10009,1.27247V480.6713H436.38467V404.59171Zm-9.59821-2.48688.51019-8.62934h5.38715l-1.19977,8.6305Zm-2.07556-.00055-4.80475-.00122v-8.62757h5.31494Zm-6.876-.00171-4.79913-.00122-.52344-8.62586h5.32257Zm-6.87414-.00177-4.72474-.00116-1.181-8.62415h5.38227Zm25.8092.00653-3.19452-.00079,1.19977-8.63105h6.16125Zm-40.751-8.63184h6.94483l1.18084,8.6236-4.10907-.001Z"/><path class="cls-1" d="M469.76309,407.17618H438.8002v69.708h30.96289Zm-2.07129,13.16894h-7.51855V409.24747h7.51855Zm-17.4165,41.854V450.33682H458.102v11.86231Zm7.82666,2.07129V474.8129H450.2753V464.27042Zm0-41.854V433.5253H450.2753V422.41641Zm-7.82666-2.07129V409.24747H458.102v11.09765Zm7.82666,16.54541v11.375H450.2753v-11.375Zm-9.898-3.36523h-7.33252V422.41641H448.204Zm0,3.36523v11.375h-7.33252v-11.375Zm0,13.44629v11.86231h-7.33252V450.33682Zm11.96924,0h7.51855v11.86231h-7.51855Zm0-2.07129v-11.375h7.51855v11.375Zm0-14.74023V422.41641h7.51855V433.5253ZM448.204,409.24747v11.09765h-7.33252V409.24747Zm-7.33252,55.02295H448.204V474.8129h-7.33252Zm19.30176,10.54248V464.27042h7.51855V474.8129Z"/><path class="cls-1" d="M377.34561,403.31924l4.69922-9.73388a1.52072,1.52072,0,0,0-1.36914-2.18115H334.015a1.52048,1.52048,0,0,0-1.37842,2.1621l4.53027,9.72461a1.50079,1.50079,0,0,0,.20654.31531v77.131h-2.94433v5.78907h45.832v-5.78907H377.3168V403.36215C377.32492,403.34671,377.338,403.33505,377.34561,403.31924Zm-2.1001,1.27247V480.6713H339.44473V404.59171Zm-9.5982-2.48688.51062-8.62934h5.38714l-1.20013,8.6305Zm-2.07556-.00055-4.80426-.00122v-8.62757h5.31488Zm-6.87555-.00171-4.79962-.00122-.523-8.62586h5.32263Zm-6.87458-.00177-4.72436-.00116-1.18134-8.62415h5.38269Zm25.80915.00653-3.19452-.00079,1.20019-8.63105h6.16083Zm-40.751-8.63184h6.94489l1.18121,8.6236-4.1095-.001Z"/><path class="cls-1" d="M372.82315,407.17618H341.86026v69.708h30.96289Zm-2.07129,13.16894H363.2338V409.24747h7.51806Zm-17.416,41.854V450.33682h7.82666v11.86231Zm7.82666,2.07129V474.8129h-7.82666V464.27042Zm0-41.854V433.5253h-7.82666V422.41641Zm-7.82666-2.07129V409.24747h7.82666v11.09765Zm7.82666,16.54541v11.375h-7.82666v-11.375Zm-9.89795-3.36523h-7.333V422.41641h7.333Zm0,3.36523v11.375h-7.333v-11.375Zm0,13.44629v11.86231h-7.333V450.33682Zm11.96924,0h7.51806v11.86231H363.2338Zm0-2.07129v-11.375h7.51806v11.375Zm0-14.74023V422.41641h7.51806V433.5253Zm-11.96924-24.27783v11.09765h-7.333V409.24747Zm-7.333,55.02295h7.333V474.8129h-7.333ZM363.2338,474.8129V464.27042h7.51806V474.8129Z"/><path class="cls-1" d="M295.456,403.31924l4.69922-9.73388a1.52072,1.52072,0,0,0-1.36963-2.18115H252.12491a1.52048,1.52048,0,0,0-1.37842,2.1621l4.53027,9.72461a1.50043,1.50043,0,0,0,.20655.31531v77.131H252.539v5.78907h45.83252v-5.78907h-2.94482V403.3627C295.43491,403.347,295.44821,403.33524,295.456,403.31924Zm-2.10058,1.27247V480.6713H257.5546V404.59171Zm-9.59821-2.48688.51062-8.62934H289.655l-1.19977,8.6305Zm-2.07556-.00055-4.80426-.00122v-8.62757h5.31488Zm-6.87555-.00171-4.79962-.00122-.523-8.62586h5.32263Zm-6.87457-.00177-4.72431-.00116-1.181-8.62415h5.38227Zm25.80963.00653-3.19452-.00079,1.19977-8.63105h6.16125Zm-40.75147-8.63184H259.935l1.18084,8.6236-4.10955-.001Z"/><path class="cls-1" d="M290.9335,407.17618H259.97012v69.708H290.9335Zm-2.07129,13.16894h-7.51855V409.24747h7.51855Zm-17.4165,41.854V450.33682h7.82666v11.86231Zm7.82666,2.07129V474.8129h-7.82666V464.27042Zm0-41.854V433.5253h-7.82666V422.41641Zm-7.82666-2.07129V409.24747h7.82666v11.09765Zm7.82666,16.54541v11.375h-7.82666v-11.375Zm-9.898-3.36523h-7.333V422.41641h7.333Zm0,3.36523v11.375h-7.333v-11.375Zm0,13.44629v11.86231h-7.333V450.33682Zm11.96924,0h7.51855v11.86231h-7.51855Zm0-2.07129v-11.375h7.51855v11.375Zm0-14.74023V422.41641h7.51855V433.5253Zm-11.96924-24.27783v11.09765h-7.333V409.24747Zm-7.333,55.02295h7.333V474.8129h-7.333Zm19.30225,10.54248V464.27042h7.51855V474.8129Z"/><path class="cls-1" d="M566.622,403.31924l4.69824-9.73388a1.51948,1.51948,0,0,0-1.36816-2.18115H523.29092a1.51953,1.51953,0,0,0-1.37793,2.1621l4.53028,9.72461.001.002a1.49666,1.49666,0,0,0,.20508.31207v77.13226H523.705v5.78907h45.833v-5.78907h-2.94433v-77.376C566.60165,403.3461,566.61447,403.33469,566.622,403.31924Zm-2.10059,1.27247V480.6713h-35.7998V404.59171Zm-9.59771-2.48688.51062-8.62934h5.38623l-1.19928,8.6305Zm-2.07557-.00055-4.80426-.00122v-8.62757h5.31488Zm-6.87652-.00171-4.79859-.00122-.52264-8.62586h5.32123Zm-6.87457-.00177-4.72339-.00116-1.18134-8.62415h5.38214Zm25.81012.00653-3.19361-.00079,1.1994-8.63105h6.16022Zm-40.751-8.63184H531.101l1.18122,8.6236-4.1095-.001Z"/><path class="cls-1" d="M562.09952,407.17618H531.13565v69.708h30.96387Zm-2.07227,13.16894h-7.5166V409.24747h7.5166Zm-17.415,41.854V450.33682h7.82618v11.86231Zm7.82618,2.07129V474.8129h-7.82618V464.27042Zm0-41.854V433.5253h-7.82618V422.41641Zm-7.82618-2.07129V409.24747h7.82618v11.09765Zm7.82618,16.54541v11.375h-7.82618v-11.375ZM540.54,433.5253h-7.332V422.41641h7.332Zm0,3.36523v11.375h-7.332v-11.375Zm0,13.44629v11.86231h-7.332V450.33682Zm11.9707,0h7.5166v11.86231h-7.5166Zm0-2.07129v-11.375h7.5166v11.375Zm0-14.74023V422.41641h7.5166V433.5253ZM540.54,409.24747v11.09765h-7.332V409.24747Zm-7.332,55.02295h7.332V474.8129h-7.332Zm19.30273,10.54248V464.27042h7.5166V474.8129Z"/><path class="cls-1" d="M746.97452,403.31924l4.69922-9.73388a1.51979,1.51979,0,0,0-1.36914-2.18115H703.64444a1.51952,1.51952,0,0,0-1.37793,2.1621l4.53027,9.72461a1.49646,1.49646,0,0,0,.20508.3136v77.13269h-2.94433v5.78907h45.833v-5.78907H746.9462V403.36154C746.95413,403.34634,746.96707,403.33481,746.97452,403.31924Zm-2.10059,1.27247V480.6713h-35.7998V404.59171Zm-9.59772-2.48688.51062-8.62934H741.174l-1.20013,8.6305Zm-2.07556-.00055-4.80328-.00122v-8.62757h5.3139Zm-6.87555-.00171-4.79864-.00122-.52344-8.62586h5.32208Zm-6.87463-.00177-4.7243-.00116-1.18134-8.62415h5.3822Zm25.8092.00653-3.19354-.00079,1.2002-8.63105h6.16034Zm-40.75-8.63184h6.94391l1.18122,8.6236-4.10852-.001Z"/><path class="cls-1" d="M742.453,407.17618H711.48917v69.708H742.453Zm-2.07226,13.16894h-7.51758V409.24747h7.51758Zm-17.415,41.854V450.33682h7.82519v11.86231Zm7.82519,2.07129V474.8129h-7.82519V464.27042Zm0-41.854V433.5253h-7.82519V422.41641Zm-7.82519-2.07129V409.24747h7.82519v11.09765Zm7.82519,16.54541v11.375h-7.82519v-11.375Zm-9.89746-3.36523h-7.332V422.41641h7.332Zm0,3.36523v11.375h-7.332v-11.375Zm0,13.44629v11.86231h-7.332V450.33682Zm11.96973,0h7.51758v11.86231h-7.51758Zm0-2.07129v-11.375h7.51758v11.375Zm0-14.74023V422.41641h7.51758V433.5253Zm-11.96973-24.27783v11.09765h-7.332V409.24747Zm-7.332,55.02295h7.332V474.8129h-7.332Zm19.30176,10.54248V464.27042h7.51758V474.8129Z"/><path class="cls-1" d="M665.09561,403.31924l4.69824-9.73388a1.51978,1.51978,0,0,0-1.36914-2.18115H621.76456a1.51952,1.51952,0,0,0-1.37793,2.1621l4.52832,9.72217a1.49927,1.49927,0,0,0,.208.31855v77.13018h-2.94434v5.78907h45.833v-5.78907h-2.94434v-77.376C665.07529,403.3461,665.0881,403.33469,665.09561,403.31924Zm-2.10058,1.27247V480.6713H627.19522V404.59171Zm-9.59778-2.48688.50982-8.62934h5.387L658.094,402.106Zm-2.07556-.00055-4.8042-.00122v-8.62757h5.314Zm-6.87647-.00171-4.79864-.00122-.52344-8.62586h5.32208Zm-6.87463-.00177-4.72333-.00116-1.18134-8.62415h5.38123Zm25.81018.00653-3.19452-.00079,1.20019-8.63105h6.16034Zm-40.751-8.63184h6.94489l1.18121,8.6236-4.1095-.001Z"/><path class="cls-1" d="M660.57315,407.17618H629.60928v69.708h30.96387Zm-2.07226,13.16894h-7.51661V409.24747h7.51661Zm-17.415,41.854V450.33682H648.912v11.86231Zm7.82617,2.07129V474.8129h-7.82617V464.27042Zm0-41.854V433.5253h-7.82617V422.41641Zm-7.82617-2.07129V409.24747H648.912v11.09765Zm7.82617,16.54541v11.375h-7.82617v-11.375Zm-9.89844-3.36523h-7.332V422.41641h7.332Zm0,3.36523v11.375h-7.332v-11.375Zm0,13.44629v11.86231h-7.332V450.33682Zm11.9707,0h7.51661v11.86231h-7.51661Zm0-2.07129v-11.375h7.51661v11.375Zm0-14.74023V422.41641h7.51661V433.5253Zm-11.9707-24.27783v11.09765h-7.332V409.24747Zm-7.332,55.02295h7.332V474.8129h-7.332Zm19.30273,10.54248V464.27042h7.51661V474.8129Z"/><rect class="cls-1" x="220.50186" y="591.26309" width="2.30371" height="43.93945"/><path class="cls-1" d="M222.46336,591.7423s1.4043,0,1.4043-1.30745-2.27522-6.29515-2.27522-6.29515-2.27594,4.98769-2.27594,6.29515,1.4043,1.30745,1.4043,1.30745Z"/><rect class="cls-1" x="245.11259" y="591.28718" width="2.30371" height="43.93934"/><path class="cls-1" d="M247.07586,591.759s1.40161,0,1.40161-1.30494-2.27086-6.28305-2.27086-6.28305-2.27156,4.97811-2.27156,6.28305,1.4016,1.30494,1.4016,1.30494Z"/><rect class="cls-1" x="269.72332" y="591.31127" width="2.30371" height="43.93924"/><path class="cls-1" d="M271.68836,591.77568s1.39891,0,1.39891-1.30243-2.26649-6.271-2.26649-6.271-2.26719,4.96853-2.26719,6.271,1.39891,1.30243,1.39891,1.30243Z"/><rect class="cls-1" x="294.33406" y="591.33536" width="2.30371" height="43.93913"/><path class="cls-1" d="M296.30086,591.79237s1.39621,0,1.39621-1.29991-2.26211-6.25887-2.26211-6.25887-2.26282,4.95895-2.26282,6.25887,1.3962,1.29991,1.3962,1.29991Z"/><rect class="cls-1" x="318.94479" y="591.35945" width="2.30371" height="43.93902"/><path class="cls-1" d="M320.91336,591.80906s1.39351,0,1.39351-1.2974-2.25774-6.24677-2.25774-6.24677-2.25845,4.94936-2.25845,6.24677,1.39351,1.2974,1.39351,1.2974Z"/><rect class="cls-1" x="343.55552" y="591.38353" width="2.30371" height="43.93891"/><path class="cls-1" d="M345.52586,591.82576s1.39081,0,1.39081-1.2949-2.25337-6.23468-2.25337-6.23468-2.25407,4.93979-2.25407,6.23468,1.39081,1.2949,1.39081,1.2949Z"/><rect class="cls-1" x="368.16625" y="591.40762" width="2.30371" height="43.9388"/><path class="cls-1" d="M370.13836,591.84245s1.38811,0,1.38811-1.29239-2.249-6.22258-2.249-6.22258-2.2497,4.9302-2.2497,6.22258,1.38812,1.29239,1.38812,1.29239Z"/><rect class="cls-1" x="392.77698" y="591.43171" width="2.30371" height="43.93869"/><path class="cls-1" d="M394.75086,591.85914s1.38542,0,1.38542-1.28987-2.24463-6.2105-2.24463-6.2105-2.24534,4.92062-2.24534,6.2105,1.38542,1.28987,1.38542,1.28987Z"/><rect class="cls-1" x="417.38771" y="591.4558" width="2.30371" height="43.93859"/><path class="cls-1" d="M419.36336,591.87583s1.38272,0,1.38272-1.28736-2.24026-6.1984-2.24026-6.1984-2.241,4.911-2.241,6.1984,1.38272,1.28736,1.38272,1.28736Z"/><rect class="cls-1" x="441.99844" y="591.47989" width="2.30371" height="43.93848"/><path class="cls-1" d="M443.97586,591.89252s1.38,0,1.38-1.28485-2.23589-6.18631-2.23589-6.18631-2.23659,4.90146-2.23659,6.18631,1.38,1.28485,1.38,1.28485Z"/></svg>